<svg xmlns="http://www.w3.org/2000/svg" xmlns:xlink="http://www.w3.org/1999/xlink" width="500" zoomAndPan="magnify" viewBox="0 0 375 374.999991" height="500" preserveAspectRatio="xMidYMid meet" version="1.0"><defs><clipPath id="050789f50b"><path d="M 12.296875 12.546875 L 367 12.546875 L 367 341.832031 L 12.296875 341.832031 Z M 12.296875 12.546875 " clip-rule="nonzero"/></clipPath><clipPath id="e29b0d14ea"><path d="M 189.265625 12.546875 L 231.042969 138.320312 L 366.238281 138.320312 L 256.863281 216.054688 L 298.640625 341.832031 L 189.265625 264.097656 L 79.890625 341.832031 L 121.667969 216.054688 L 12.296875 138.320312 L 147.488281 138.320312 Z M 189.265625 12.546875 " clip-rule="nonzero"/></clipPath><clipPath id="d219ae8745"><path d="M 0.296875 0.546875 L 354.238281 0.546875 L 354.238281 329.832031 L 0.296875 329.832031 Z M 0.296875 0.546875 " clip-rule="nonzero"/></clipPath><clipPath id="f3ae40a187"><path d="M 177.265625 0.546875 L 219.042969 126.320312 L 354.238281 126.320312 L 244.863281 204.054688 L 286.640625 329.832031 L 177.265625 252.097656 L 67.890625 329.832031 L 109.667969 204.054688 L 0.296875 126.320312 L 135.488281 126.320312 Z M 177.265625 0.546875 " clip-rule="nonzero"/></clipPath><clipPath id="6ac18e910a"><rect x="0" width="355" y="0" height="330"/></clipPath><clipPath id="b0c33f0dc2"><path d="M 12.296875 12.550781 L 366.296875 12.550781 L 366.296875 341.796875 L 12.296875 341.796875 Z M 12.296875 12.550781 " clip-rule="nonzero"/></clipPath><clipPath id="719fb40660"><path d="M 189.261719 12.550781 L 231.035156 138.320312 L 366.226562 138.320312 L 256.855469 216.054688 L 298.632812 341.828125 L 189.261719 264.09375 L 79.890625 341.828125 L 121.667969 216.054688 L 12.296875 138.320312 L 147.484375 138.320312 Z M 189.261719 12.550781 " clip-rule="nonzero"/></clipPath><clipPath id="4fd216c310"><path d="M 11 32 L 368 32 L 368 365 L 11 365 Z M 11 32 " clip-rule="nonzero"/></clipPath><clipPath id="54c176de28"><path d="M 65.191406 404.816406 L -43.4375 75.488281 L 279.585938 -31.0625 L 388.214844 298.269531 Z M 65.191406 404.816406 " clip-rule="nonzero"/></clipPath><clipPath id="ca43406fb3"><path d="M 11.082031 240.769531 L 121.691406 161.347656 L 80.355469 36.027344 L 190.050781 112.261719 L 300.660156 32.835938 L 257.847656 159.375 L 367.546875 235.609375 L 231.386719 237.582031 L 188.574219 364.121094 L 147.238281 238.800781 Z M 11.082031 240.769531 " clip-rule="nonzero"/></clipPath><clipPath id="f902bea2f5"><path d="M 0.0390625 0.640625 L 356.679688 0.640625 L 356.679688 332.320312 L 0.0390625 332.320312 Z M 0.0390625 0.640625 " clip-rule="nonzero"/></clipPath><clipPath id="f3938e5105"><path d="M 54.191406 372.816406 L -54.4375 43.488281 L 268.585938 -63.0625 L 377.214844 266.269531 Z M 54.191406 372.816406 " clip-rule="nonzero"/></clipPath><clipPath id="8941e6b0a9"><path d="M 0.0820312 208.769531 L 110.691406 129.347656 L 69.355469 4.027344 L 179.050781 80.261719 L 289.660156 0.835938 L 246.847656 127.375 L 356.546875 203.609375 L 220.386719 205.582031 L 177.574219 332.121094 L 136.238281 206.800781 Z M 0.0820312 208.769531 " clip-rule="nonzero"/></clipPath><clipPath id="de6c6e356a"><rect x="0" width="357" y="0" height="333"/></clipPath><clipPath id="aed1b01058"><path d="M 11 32 L 368 32 L 368 365 L 11 365 Z M 11 32 " clip-rule="nonzero"/></clipPath><clipPath id="24e7539784"><path d="M 65.191406 404.816406 L -43.113281 76.46875 L 280.25 -30.191406 L 388.554688 298.15625 Z M 65.191406 404.816406 " clip-rule="nonzero"/></clipPath><clipPath id="22a8344f77"><path d="M 65.191406 404.816406 L -43.027344 76.726562 L 285.0625 -31.496094 L 393.28125 296.597656 Z M 65.191406 404.816406 " clip-rule="nonzero"/></clipPath><clipPath id="4336674cd5"><path d="M 11.082031 240.773438 L 121.691406 161.347656 L 80.351562 36.027344 L 190.050781 112.261719 L 300.65625 32.839844 L 257.847656 159.375 L 367.542969 235.609375 L 231.386719 237.582031 L 188.574219 364.121094 L 147.238281 238.800781 Z M 11.082031 240.773438 " clip-rule="nonzero"/></clipPath><clipPath id="f73ed124ad"><path d="M 161.246094 149.839844 L 217.441406 149.839844 L 217.441406 204.539062 L 161.246094 204.539062 Z M 161.246094 149.839844 " clip-rule="nonzero"/></clipPath><clipPath id="2a7db0cc35"><path d="M 189.265625 149.839844 C 173.792969 149.839844 161.246094 162.085938 161.246094 177.1875 C 161.246094 192.292969 173.792969 204.539062 189.265625 204.539062 C 204.742188 204.539062 217.285156 192.292969 217.285156 177.1875 C 217.285156 162.085938 204.742188 149.839844 189.265625 149.839844 Z M 189.265625 149.839844 " clip-rule="nonzero"/></clipPath><clipPath id="027e4853f0"><path d="M 0.246094 0.839844 L 56.441406 0.839844 L 56.441406 55.539062 L 0.246094 55.539062 Z M 0.246094 0.839844 " clip-rule="nonzero"/></clipPath><clipPath id="5855291b47"><path d="M 28.265625 0.839844 C 12.792969 0.839844 0.246094 13.085938 0.246094 28.1875 C 0.246094 43.292969 12.792969 55.539062 28.265625 55.539062 C 43.742188 55.539062 56.285156 43.292969 56.285156 28.1875 C 56.285156 13.085938 43.742188 0.839844 28.265625 0.839844 Z M 28.265625 0.839844 " clip-rule="nonzero"/></clipPath><clipPath id="b7c0d8e802"><rect x="0" width="57" y="0" height="56"/></clipPath><clipPath id="e0686e6b53"><path d="M 161.25 149.839844 L 217.496094 149.839844 L 217.496094 204.53125 L 161.25 204.53125 Z M 161.25 149.839844 " clip-rule="nonzero"/></clipPath><clipPath id="83851abca3"><path d="M 189.265625 149.839844 C 173.792969 149.839844 161.25 162.082031 161.25 177.183594 C 161.25 192.289062 173.792969 204.53125 189.265625 204.53125 C 204.738281 204.53125 217.28125 192.289062 217.28125 177.183594 C 217.28125 162.082031 204.738281 149.839844 189.265625 149.839844 Z M 189.265625 149.839844 " clip-rule="nonzero"/></clipPath></defs><g clip-path="url(#050789f50b)"><g clip-path="url(#e29b0d14ea)"><g transform="matrix(1, 0, 0, 1, 12, 12)"><g clip-path="url(#6ac18e910a)"><g clip-path="url(#d219ae8745)"><g clip-path="url(#f3ae40a187)"><path fill="#ffde59" d="M 0.296875 0.546875 L 354.023438 0.546875 L 354.023438 329.832031 L 0.296875 329.832031 Z M 0.296875 0.546875 " fill-opacity="1" fill-rule="nonzero"/></g></g></g></g></g></g><g clip-path="url(#b0c33f0dc2)"><g clip-path="url(#719fb40660)"><path stroke-linecap="butt" transform="matrix(0.75, 0, 0, 0.75, 12.295703, 12.549292)" fill="none" stroke-linejoin="miter" d="M 235.954703 0.00198602 L 291.652623 167.694705 L 471.907843 167.694705 L 326.079709 271.340546 L 381.782837 439.038473 L 235.954703 335.392633 L 90.126568 439.038473 L 145.829697 271.340546 L 0.00156217 167.694705 L 180.251574 167.694705 Z M 235.954703 0.00198602 " stroke="#000000" stroke-width="12" stroke-opacity="1" stroke-miterlimit="4"/></g></g><g clip-path="url(#4fd216c310)"><g clip-path="url(#54c176de28)"><g clip-path="url(#ca43406fb3)"><g transform="matrix(1, 0, 0, 1, 11, 32)"><g clip-path="url(#de6c6e356a)"><g clip-path="url(#f902bea2f5)"><g clip-path="url(#f3938e5105)"><g clip-path="url(#8941e6b0a9)"><path fill="#ffde59" d="M 54.191406 372.816406 L -54.019531 44.75 L 269 -61.800781 L 377.214844 266.269531 Z M 54.191406 372.816406 " fill-opacity="1" fill-rule="nonzero"/></g></g></g></g></g></g></g></g><g clip-path="url(#aed1b01058)"><g clip-path="url(#24e7539784)"><g clip-path="url(#22a8344f77)"><g clip-path="url(#4336674cd5)"><path stroke-linecap="butt" transform="matrix(-0.234936, -0.712253, 0.712253, -0.234936, 65.192139, 404.817093)" fill="none" stroke-linejoin="miter" d="M 230.316602 -0.000588697 L 284.690206 173.229458 L 460.640526 173.225585 L 318.29295 280.289485 L 372.663239 453.512954 L 230.320442 346.458284 L 87.974498 453.517238 L 142.344261 280.288412 L -0.00185001 173.227165 L 175.946839 173.228237 Z M 230.316602 -0.000588697 " stroke="#000000" stroke-width="12" stroke-opacity="1" stroke-miterlimit="4"/></g></g></g></g><g clip-path="url(#f73ed124ad)"><g clip-path="url(#2a7db0cc35)"><g transform="matrix(1, 0, 0, 1, 161, 149)"><g clip-path="url(#b7c0d8e802)"><g clip-path="url(#027e4853f0)"><g clip-path="url(#5855291b47)"><path fill="#000000" d="M 0.246094 0.839844 L 56.230469 0.839844 L 56.230469 55.539062 L 0.246094 55.539062 Z M 0.246094 0.839844 " fill-opacity="1" fill-rule="nonzero"/></g></g></g></g></g></g><g clip-path="url(#e0686e6b53)"><g clip-path="url(#83851abca3)"><path stroke-linecap="butt" transform="matrix(0.75, 0, 0, 0.75, 161.250815, 149.838931)" fill="none" stroke-linejoin="miter" d="M 37.353083 0.00121705 C 16.722873 0.00121705 -0.00108628 16.324135 -0.00108628 36.459553 C -0.00108628 56.600179 16.722873 72.923097 37.353083 72.923097 C 57.983293 72.923097 74.707252 56.600179 74.707252 36.459553 C 74.707252 16.324135 57.983293 0.00121705 37.353083 0.00121705 Z M 37.353083 0.00121705 " stroke="#000000" stroke-width="4" stroke-opacity="1" stroke-miterlimit="4"/></g></g></svg>