<svg xmlns="http://www.w3.org/2000/svg" xmlns:xlink="http://www.w3.org/1999/xlink" width="500" zoomAndPan="magnify" viewBox="0 0 375 374.999991" height="500" preserveAspectRatio="xMidYMid meet" version="1.0"><defs><g/></defs><g fill="#ffde59" fill-opacity="1"><g transform="translate(11.276371, 217.175141)"><g><path d="M 34.484375 -66.5 C 42.847656 -66.5 49.71875 -64.800781 55.09375 -61.40625 C 60.476562 -58.019531 63.234375 -53.003906 63.359375 -46.359375 L 63.359375 -45.21875 L 43.703125 -45.21875 L 43.703125 -45.59375 C 43.703125 -47.5 43.003906 -49.082031 41.609375 -50.34375 C 40.210938 -51.613281 38.09375 -52.25 35.25 -52.25 C 32.457031 -52.25 30.316406 -51.835938 28.828125 -51.015625 C 27.335938 -50.191406 26.59375 -49.175781 26.59375 -47.96875 C 26.59375 -46.257812 27.609375 -44.992188 29.640625 -44.171875 C 31.671875 -43.347656 34.929688 -42.492188 39.421875 -41.609375 C 44.679688 -40.535156 49.003906 -39.410156 52.390625 -38.234375 C 55.773438 -37.066406 58.734375 -35.148438 61.265625 -32.484375 C 63.804688 -29.828125 65.109375 -26.21875 65.171875 -21.65625 C 65.171875 -13.925781 62.554688 -8.191406 57.328125 -4.453125 C 52.109375 -0.722656 45.128906 1.140625 36.390625 1.140625 C 26.191406 1.140625 18.253906 -0.566406 12.578125 -3.984375 C 6.910156 -7.410156 4.078125 -13.460938 4.078125 -22.140625 L 23.9375 -22.140625 C 23.9375 -18.835938 24.789062 -16.632812 26.5 -15.53125 C 28.207031 -14.425781 30.867188 -13.875 34.484375 -13.875 C 37.140625 -13.875 39.335938 -14.15625 41.078125 -14.71875 C 42.828125 -15.289062 43.703125 -16.460938 43.703125 -18.234375 C 43.703125 -19.816406 42.734375 -21.003906 40.796875 -21.796875 C 38.867188 -22.585938 35.71875 -23.425781 31.34375 -24.3125 C 26.03125 -25.457031 21.628906 -26.644531 18.140625 -27.875 C 14.660156 -29.113281 11.617188 -31.15625 9.015625 -34 C 6.421875 -36.851562 5.125 -40.71875 5.125 -45.59375 C 5.125 -52.75 7.894531 -58.019531 13.4375 -61.40625 C 18.976562 -64.800781 25.992188 -66.5 34.484375 -66.5 Z M 34.484375 -66.5 "/></g></g></g><g fill="#ffde59" fill-opacity="1"><g transform="translate(79.860752, 217.175141)"><g><path d="M 44.65625 -48.640625 L 44.65625 0 L 23.65625 0 L 23.65625 -48.640625 L 2.1875 -48.640625 L 2.1875 -65.359375 L 66.03125 -65.359375 L 66.03125 -48.640625 Z M 44.65625 -48.640625 "/></g></g></g><g fill="#ffde59" fill-opacity="1"><g transform="translate(141.985469, 217.175141)"><g><path d="M 50.828125 0 L 48.0625 -9.21875 L 25.171875 -9.21875 L 22.421875 0 L 0.953125 0 L 24.796875 -65.359375 L 49.203125 -65.359375 L 73.0625 0 Z M 29.546875 -23.84375 L 43.703125 -23.84375 L 36.859375 -47.125 L 36.484375 -47.125 Z M 29.546875 -23.84375 "/></g></g></g><g fill="#ffde59" fill-opacity="1"><g transform="translate(215.889395, 217.175141)"><g><path d="M 69.0625 -45.3125 C 69.0625 -41.320312 67.984375 -37.710938 65.828125 -34.484375 C 63.679688 -31.253906 60.550781 -28.878906 56.4375 -27.359375 L 70.96875 0 L 47.40625 0 L 35.8125 -23.84375 L 28.03125 -23.84375 L 28.03125 0 L 7.03125 0 L 7.03125 -65.359375 L 47.03125 -65.359375 C 51.71875 -65.359375 55.722656 -64.453125 59.046875 -62.640625 C 62.367188 -60.835938 64.867188 -58.398438 66.546875 -55.328125 C 68.222656 -52.265625 69.0625 -48.925781 69.0625 -45.3125 Z M 47.6875 -44.453125 C 47.6875 -46.171875 47.113281 -47.597656 45.96875 -48.734375 C 44.832031 -49.867188 43.441406 -50.4375 41.796875 -50.4375 L 28.03125 -50.4375 L 28.03125 -38.375 L 41.796875 -38.375 C 43.441406 -38.375 44.832031 -38.957031 45.96875 -40.125 C 47.113281 -41.300781 47.6875 -42.742188 47.6875 -44.453125 Z M 47.6875 -44.453125 "/></g></g></g><g fill="#ffde59" fill-opacity="1"><g transform="translate(289.793344, 217.175141)"><g><path d="M 69.0625 -45.3125 C 69.0625 -41.320312 67.984375 -37.710938 65.828125 -34.484375 C 63.679688 -31.253906 60.550781 -28.878906 56.4375 -27.359375 L 70.96875 0 L 47.40625 0 L 35.8125 -23.84375 L 28.03125 -23.84375 L 28.03125 0 L 7.03125 0 L 7.03125 -65.359375 L 47.03125 -65.359375 C 51.71875 -65.359375 55.722656 -64.453125 59.046875 -62.640625 C 62.367188 -60.835938 64.867188 -58.398438 66.546875 -55.328125 C 68.222656 -52.265625 69.0625 -48.925781 69.0625 -45.3125 Z M 47.6875 -44.453125 C 47.6875 -46.171875 47.113281 -47.597656 45.96875 -48.734375 C 44.832031 -49.867188 43.441406 -50.4375 41.796875 -50.4375 L 28.03125 -50.4375 L 28.03125 -38.375 L 41.796875 -38.375 C 43.441406 -38.375 44.832031 -38.957031 45.96875 -40.125 C 47.113281 -41.300781 47.6875 -42.742188 47.6875 -44.453125 Z M 47.6875 -44.453125 "/></g></g></g></svg>