<svg xmlns="http://www.w3.org/2000/svg" xmlns:xlink="http://www.w3.org/1999/xlink" width="500" zoomAndPan="magnify" viewBox="0 0 375 374.999991" height="500" preserveAspectRatio="xMidYMid meet" version="1.0"><defs><g/></defs><g fill="#ffffff" fill-opacity="1"><g transform="translate(11.302738, 218.624986)"><g><path d="M 34.484375 -66.484375 C 42.835938 -66.484375 49.707031 -64.789062 55.09375 -61.40625 C 60.476562 -58.019531 63.234375 -53.003906 63.359375 -46.359375 L 63.359375 -45.21875 L 43.6875 -45.21875 L 43.6875 -45.59375 C 43.6875 -47.488281 42.988281 -49.066406 41.59375 -50.328125 C 40.207031 -51.597656 38.085938 -52.234375 35.234375 -52.234375 C 32.453125 -52.234375 30.316406 -51.820312 28.828125 -51 C 27.335938 -50.175781 26.59375 -49.164062 26.59375 -47.96875 C 26.59375 -46.257812 27.601562 -44.992188 29.625 -44.171875 C 31.65625 -43.347656 34.921875 -42.492188 39.421875 -41.609375 C 44.671875 -40.523438 48.988281 -39.394531 52.375 -38.21875 C 55.769531 -37.050781 58.734375 -35.140625 61.265625 -32.484375 C 63.796875 -29.828125 65.09375 -26.21875 65.15625 -21.65625 C 65.15625 -13.925781 62.539062 -8.191406 57.3125 -4.453125 C 52.09375 -0.722656 45.113281 1.140625 36.375 1.140625 C 26.1875 1.140625 18.253906 -0.566406 12.578125 -3.984375 C 6.910156 -7.410156 4.078125 -13.457031 4.078125 -22.125 L 23.9375 -22.125 C 23.9375 -18.832031 24.789062 -16.632812 26.5 -15.53125 C 28.207031 -14.425781 30.867188 -13.875 34.484375 -13.875 C 37.140625 -13.875 39.335938 -14.15625 41.078125 -14.71875 C 42.816406 -15.289062 43.6875 -16.460938 43.6875 -18.234375 C 43.6875 -19.816406 42.722656 -21.003906 40.796875 -21.796875 C 38.867188 -22.585938 35.71875 -23.425781 31.34375 -24.3125 C 26.019531 -25.457031 21.617188 -26.644531 18.140625 -27.875 C 14.660156 -29.113281 11.617188 -31.15625 9.015625 -34 C 6.421875 -36.851562 5.125 -40.71875 5.125 -45.59375 C 5.125 -52.75 7.894531 -58.019531 13.4375 -61.40625 C 18.976562 -64.789062 25.992188 -66.484375 34.484375 -66.484375 Z M 34.484375 -66.484375 "/></g></g></g><g fill="#ffffff" fill-opacity="1"><g transform="translate(79.878593, 218.624986)"><g><path d="M 44.640625 -48.625 L 44.640625 0 L 23.65625 0 L 23.65625 -48.625 L 2.1875 -48.625 L 2.1875 -65.34375 L 66.015625 -65.34375 L 66.015625 -48.625 Z M 44.640625 -48.625 "/></g></g></g><g fill="#ffffff" fill-opacity="1"><g transform="translate(141.995299, 218.624986)"><g><path d="M 50.8125 0 L 48.0625 -9.21875 L 25.171875 -9.21875 L 22.421875 0 L 0.953125 0 L 24.796875 -65.34375 L 49.203125 -65.34375 L 73.046875 0 Z M 29.546875 -23.84375 L 43.6875 -23.84375 L 36.859375 -47.109375 L 36.46875 -47.109375 Z M 29.546875 -23.84375 "/></g></g></g><g fill="#ffffff" fill-opacity="1"><g transform="translate(215.890059, 218.624986)"><g><path d="M 69.046875 -45.3125 C 69.046875 -41.320312 67.96875 -37.710938 65.8125 -34.484375 C 63.664062 -31.253906 60.535156 -28.878906 56.421875 -27.359375 L 70.953125 0 L 47.390625 0 L 35.8125 -23.84375 L 28.015625 -23.84375 L 28.015625 0 L 7.03125 0 L 7.03125 -65.34375 L 47.015625 -65.34375 C 51.703125 -65.34375 55.707031 -64.441406 59.03125 -62.640625 C 62.351562 -60.835938 64.851562 -58.398438 66.53125 -55.328125 C 68.207031 -52.253906 69.046875 -48.914062 69.046875 -45.3125 Z M 47.6875 -44.453125 C 47.6875 -46.160156 47.113281 -47.582031 45.96875 -48.71875 C 44.832031 -49.863281 43.441406 -50.4375 41.796875 -50.4375 L 28.015625 -50.4375 L 28.015625 -38.375 L 41.796875 -38.375 C 43.441406 -38.375 44.832031 -38.957031 45.96875 -40.125 C 47.113281 -41.300781 47.6875 -42.742188 47.6875 -44.453125 Z M 47.6875 -44.453125 "/></g></g></g><g fill="#ffffff" fill-opacity="1"><g transform="translate(289.784806, 218.624986)"><g><path d="M 69.046875 -45.3125 C 69.046875 -41.320312 67.96875 -37.710938 65.8125 -34.484375 C 63.664062 -31.253906 60.535156 -28.878906 56.421875 -27.359375 L 70.953125 0 L 47.390625 0 L 35.8125 -23.84375 L 28.015625 -23.84375 L 28.015625 0 L 7.03125 0 L 7.03125 -65.34375 L 47.015625 -65.34375 C 51.703125 -65.34375 55.707031 -64.441406 59.03125 -62.640625 C 62.351562 -60.835938 64.851562 -58.398438 66.53125 -55.328125 C 68.207031 -52.253906 69.046875 -48.914062 69.046875 -45.3125 Z M 47.6875 -44.453125 C 47.6875 -46.160156 47.113281 -47.582031 45.96875 -48.71875 C 44.832031 -49.863281 43.441406 -50.4375 41.796875 -50.4375 L 28.015625 -50.4375 L 28.015625 -38.375 L 41.796875 -38.375 C 43.441406 -38.375 44.832031 -38.957031 45.96875 -40.125 C 47.113281 -41.300781 47.6875 -42.742188 47.6875 -44.453125 Z M 47.6875 -44.453125 "/></g></g></g></svg>